<svg width="250" height="101" viewBox="0 0 250 101" fill="none" xmlns="http://www.w3.org/2000/svg">
<rect x="0.5" y="0.5" width="136" height="50" stroke="#364658"/>
<rect x="23.5" y="50.5" width="90" height="50" stroke="#364658"/>
<path d="M65.7554 29C65.6968 29 65.6454 28.978 65.6014 28.934C65.5574 28.89 65.5354 28.8387 65.5354 28.78C65.5354 28.7213 65.5391 28.681 65.5464 28.659L68.2744 21.542C68.3331 21.3807 68.4504 21.3 68.6264 21.3H69.3744C69.5504 21.3 69.6678 21.3807 69.7264 21.542L72.4434 28.659L72.4654 28.78C72.4654 28.8387 72.4434 28.89 72.3994 28.934C72.3554 28.978 72.3041 29 72.2454 29H71.6844C71.6038 29 71.5414 28.9817 71.4974 28.945C71.4534 28.901 71.4241 28.857 71.4094 28.813L70.8044 27.251H67.1964L66.5914 28.813C66.5768 28.857 66.5438 28.901 66.4924 28.945C66.4484 28.9817 66.3898 29 66.3164 29H65.7554ZM70.4854 26.305L69.0004 22.4L67.5154 26.305H70.4854Z" fill="#364658"/>
<path d="M66.5362 79C66.4628 79 66.4005 78.978 66.3492 78.934C66.3052 78.8827 66.2832 78.8203 66.2832 78.747V71.564C66.2832 71.4833 66.3052 71.421 66.3492 71.377C66.4005 71.3257 66.4628 71.3 66.5362 71.3H69.5502C70.3348 71.3 70.9252 71.487 71.3212 71.861C71.7172 72.235 71.9152 72.7263 71.9152 73.335C71.9152 73.7457 71.8198 74.0867 71.6292 74.358C71.4458 74.6293 71.2258 74.8273 70.9692 74.952C71.2772 75.106 71.5375 75.3443 71.7502 75.667C71.9628 75.9897 72.0692 76.36 72.0692 76.778C72.0692 77.1887 71.9738 77.5627 71.7832 77.9C71.5998 78.2373 71.3248 78.505 70.9582 78.703C70.5915 78.901 70.1515 79 69.6382 79H66.5362ZM69.3852 74.556C69.8472 74.556 70.1992 74.4497 70.4412 74.237C70.6905 74.0243 70.8152 73.7273 70.8152 73.346C70.8152 72.972 70.6942 72.686 70.4522 72.488C70.2102 72.29 69.8545 72.191 69.3852 72.191H67.3612V74.556H69.3852ZM69.4952 78.109C69.9572 78.109 70.3165 77.9843 70.5732 77.735C70.8372 77.4857 70.9692 77.1667 70.9692 76.778C70.9692 76.3747 70.8372 76.052 70.5732 75.81C70.3165 75.5607 69.9572 75.436 69.4952 75.436H67.3612V78.109H69.4952Z" fill="#364658"/>
<path d="M219.354 76.3536C219.549 76.1583 219.549 75.8417 219.354 75.6464L216.172 72.4645C215.976 72.2692 215.66 72.2692 215.464 72.4645C215.269 72.6597 215.269 72.9763 215.464 73.1716L218.293 76L215.464 78.8284C215.269 79.0237 215.269 79.3403 215.464 79.5355C215.66 79.7308 215.976 79.7308 216.172 79.5355L219.354 76.3536ZM114 76.5H219V75.5H114V76.5Z" fill="#364658"/>
<path d="M229.249 79C229.175 79 229.113 78.978 229.062 78.934C229.018 78.8827 228.996 78.8203 228.996 78.747V78.395C228.996 78.2263 229.087 78.065 229.271 77.911L231.603 75.579C232.167 75.1097 232.556 74.7283 232.769 74.435C232.981 74.1343 233.088 73.819 233.088 73.489C233.088 73.0637 232.967 72.73 232.725 72.488C232.49 72.246 232.145 72.125 231.691 72.125C231.265 72.125 230.924 72.2533 230.668 72.51C230.411 72.7593 230.253 73.093 230.195 73.511C230.18 73.599 230.143 73.665 230.085 73.709C230.033 73.7457 229.975 73.764 229.909 73.764H229.337C229.271 73.764 229.216 73.7457 229.172 73.709C229.128 73.665 229.106 73.6137 229.106 73.555C229.12 73.159 229.227 72.7813 229.425 72.422C229.623 72.0553 229.912 71.7583 230.294 71.531C230.682 71.2963 231.148 71.179 231.691 71.179C232.519 71.179 233.143 71.3953 233.561 71.828C233.986 72.2533 234.199 72.796 234.199 73.456C234.199 73.918 234.081 74.336 233.847 74.71C233.619 75.0767 233.264 75.4727 232.78 75.898L230.668 78.043H234.1C234.18 78.043 234.243 78.0687 234.287 78.12C234.338 78.164 234.364 78.2227 234.364 78.296V78.747C234.364 78.8203 234.338 78.8827 234.287 78.934C234.235 78.978 234.173 79 234.1 79H229.249ZM238.4 79.11C237.454 79.11 236.761 78.835 236.321 78.285C235.881 77.735 235.646 77.0127 235.617 76.118C235.609 75.92 235.606 75.601 235.606 75.161C235.606 74.7063 235.609 74.3763 235.617 74.171C235.639 73.291 235.873 72.576 236.321 72.026C236.768 71.4687 237.461 71.19 238.4 71.19C239.346 71.19 240.042 71.4687 240.49 72.026C240.937 72.576 241.172 73.291 241.194 74.171C241.208 74.5817 241.216 74.9117 241.216 75.161C241.216 75.403 241.208 75.722 241.194 76.118C241.164 77.0127 240.93 77.735 240.49 78.285C240.05 78.835 239.353 79.11 238.4 79.11ZM238.4 78.164C238.95 78.164 239.364 77.9807 239.643 77.614C239.929 77.2473 240.079 76.7303 240.094 76.063C240.108 75.6377 240.116 75.3297 240.116 75.139C240.116 74.9337 240.108 74.633 240.094 74.237C240.079 73.577 239.932 73.06 239.654 72.686C239.375 72.312 238.957 72.125 238.4 72.125C237.85 72.125 237.432 72.312 237.146 72.686C236.867 73.06 236.72 73.577 236.706 74.237L236.695 75.139L236.706 76.063C236.72 76.7303 236.867 77.2473 237.146 77.614C237.432 77.9807 237.85 78.164 238.4 78.164ZM243.105 79C243.032 79 242.969 78.978 242.918 78.934C242.874 78.8827 242.852 78.8203 242.852 78.747V71.564C242.852 71.4833 242.874 71.421 242.918 71.377C242.969 71.3257 243.032 71.3 243.105 71.3H243.611C243.743 71.3 243.835 71.3513 243.886 71.454L247.538 77.064V71.564C247.538 71.4833 247.56 71.421 247.604 71.377C247.655 71.3257 247.718 71.3 247.791 71.3H248.319C248.4 71.3 248.462 71.3257 248.506 71.377C248.557 71.421 248.583 71.4833 248.583 71.564V78.736C248.583 78.8093 248.557 78.8717 248.506 78.923C248.462 78.9743 248.403 79 248.33 79H247.802C247.692 79 247.604 78.9487 247.538 78.846L243.897 73.291V78.747C243.897 78.8203 243.871 78.8827 243.82 78.934C243.769 78.978 243.706 79 243.633 79H243.105Z" fill="#364658"/>
</svg>
